<svg id="visual" viewBox="0 0 450 900" width="450" height="900" xmlns="http://www.w3.org/2000/svg" xmlns:xlink="http://www.w3.org/1999/xlink" version="1.1"><rect x="0" y="0" width="450" height="900" fill="#FF6F61"></rect><defs><linearGradient id="grad1_0" x1="0%" y1="0%" x2="100%" y2="100%"><stop offset="30%" stop-color="#fbae3c" stop-opacity="1"></stop><stop offset="70%" stop-color="#fbae3c" stop-opacity="1"></stop></linearGradient></defs><defs><linearGradient id="grad1_1" x1="0%" y1="0%" x2="100%" y2="100%"><stop offset="30%" stop-color="#fbae3c" stop-opacity="1"></stop><stop offset="70%" stop-color="#ff9845" stop-opacity="1"></stop></linearGradient></defs><defs><linearGradient id="grad1_2" x1="0%" y1="0%" x2="100%" y2="100%"><stop offset="30%" stop-color="#ff8352" stop-opacity="1"></stop><stop offset="70%" stop-color="#ff9845" stop-opacity="1"></stop></linearGradient></defs><defs><linearGradient id="grad1_3" x1="0%" y1="0%" x2="100%" y2="100%"><stop offset="30%" stop-color="#ff8352" stop-opacity="1"></stop><stop offset="70%" stop-color="#ff6f61" stop-opacity="1"></stop></linearGradient></defs><defs><linearGradient id="grad2_0" x1="0%" y1="0%" x2="100%" y2="100%"><stop offset="30%" stop-color="#fbae3c" stop-opacity="1"></stop><stop offset="70%" stop-color="#fbae3c" stop-opacity="1"></stop></linearGradient></defs><defs><linearGradient id="grad2_1" x1="0%" y1="0%" x2="100%" y2="100%"><stop offset="30%" stop-color="#ff9845" stop-opacity="1"></stop><stop offset="70%" stop-color="#fbae3c" stop-opacity="1"></stop></linearGradient></defs><defs><linearGradient id="grad2_2" x1="0%" y1="0%" x2="100%" y2="100%"><stop offset="30%" stop-color="#ff9845" stop-opacity="1"></stop><stop offset="70%" stop-color="#ff8352" stop-opacity="1"></stop></linearGradient></defs><defs><linearGradient id="grad2_3" x1="0%" y1="0%" x2="100%" y2="100%"><stop offset="30%" stop-color="#ff6f61" stop-opacity="1"></stop><stop offset="70%" stop-color="#ff8352" stop-opacity="1"></stop></linearGradient></defs><g transform="translate(450, 0)"><path d="M0 405C-41.9 373 -83.8 340.9 -135.1 326.1C-186.4 311.3 -247.2 313.8 -286.4 286.4C-325.6 258.9 -343.2 201.6 -359.4 148.9C-375.6 96.1 -390.3 48.1 -405 0L0 0Z" fill="#ff7959"></path><path d="M0 303.8C-31.4 279.7 -62.8 255.7 -101.3 244.6C-139.8 233.5 -185.4 235.4 -214.8 214.8C-244.2 194.2 -257.4 151.2 -269.5 111.6C-281.7 72.1 -292.7 36.1 -303.7 0L0 0Z" fill="#ff8d4b"></path><path d="M0 202.5C-20.9 186.5 -41.9 170.5 -67.5 163.1C-93.2 155.7 -123.6 156.9 -143.2 143.2C-162.8 129.5 -171.6 100.8 -179.7 74.4C-187.8 48.1 -195.1 24 -202.5 0L0 0Z" fill="#ffa340"></path><path d="M0 101.3C-10.5 93.2 -20.9 85.2 -33.8 81.5C-46.6 77.8 -61.8 78.5 -71.6 71.6C-81.4 64.7 -85.8 50.4 -89.8 37.2C-93.9 24 -97.6 12 -101.2 0L0 0Z" fill="#fbae3c"></path></g><g transform="translate(0, 900)"><path d="M0 -405C53.9 -400.4 107.8 -395.8 155 -374.2C202.2 -352.6 242.6 -314 272.9 -272.9C303.2 -231.9 323.4 -188.3 343.7 -142.4C364 -96.4 384.5 -48.2 405 0L0 0Z" fill="#ff7959"></path><path d="M0 -303.7C40.4 -300.3 80.9 -296.8 116.2 -280.6C151.6 -264.4 182 -235.5 204.7 -204.7C227.4 -173.9 242.5 -141.2 257.8 -106.8C273 -72.3 288.4 -36.2 303.8 0L0 0Z" fill="#ff8d4b"></path><path d="M0 -202.5C27 -200.2 53.9 -197.9 77.5 -187.1C101.1 -176.3 121.3 -157 136.5 -136.5C151.6 -115.9 161.7 -94.1 171.8 -71.2C182 -48.2 192.2 -24.1 202.5 0L0 0Z" fill="#ffa340"></path><path d="M0 -101.2C13.5 -100.1 27 -98.9 38.7 -93.5C50.5 -88.1 60.7 -78.5 68.2 -68.2C75.8 -58 80.8 -47.1 85.9 -35.6C91 -24.1 96.1 -12.1 101.3 0L0 0Z" fill="#fbae3c"></path></g></svg>